<svg xmlns="http://www.w3.org/2000/svg" width="72" height="73" viewBox="0 0 72 73">
    <g fill="#61BB46" fill-rule="evenodd">
        <path d="M20.214 21.216c-1.59 0-3.196 1.05-3.196 2.654 0 1.594 1.606 2.657 3.196 2.657s2.647-1.063 2.647-2.657c0-1.603-1.057-2.654-2.647-2.654M41.962 36.628c-1.057 0-2.122 1.065-2.122 2.122 0 1.075 1.065 2.128 2.122 2.128 1.604 0 2.655-1.053 2.655-2.128 0-1.057-1.051-2.122-2.655-2.122"/>
        <path d="M58.402 55.77l1.595 5.311-5.82-3.191c-2.12.532-4.253 1.064-6.364 1.064-10.095 0-18.045-6.91-18.045-15.418 0-8.492 7.95-15.418 18.045-15.418 9.531 0 18.02 6.926 18.02 15.418 0 4.792-3.173 9.036-7.431 12.234zm-31.296-7.442c-2.648 0-4.777-.542-7.432-1.067l-7.417 3.723 2.121-6.39c-5.31-3.716-8.49-8.506-8.49-14.342 0-10.11 9.554-18.07 21.218-18.07 10.432 0 19.573 6.363 21.407 14.919a19.205 19.205 0 0 0-2.045-.122c-10.076 0-18.036 7.532-18.036 16.813 0 1.546.238 3.033.654 4.451a25.31 25.31 0 0 1-1.98.085zm44.26-36.547C71.366 5.768 66.503.9 60.5.9H10.865C4.865.901 0 5.768 0 11.781v49.702c0 6.012 4.865 10.879 10.865 10.879H60.5c6.002 0 10.865-4.867 10.865-10.879V11.781z"/>
        <path d="M53.63 36.628c-1.047 0-2.105 1.065-2.105 2.122 0 1.075 1.058 2.128 2.105 2.128 1.592 0 2.656-1.053 2.656-2.128 0-1.057-1.064-2.122-2.656-2.122M35.061 26.527c1.598 0 2.657-1.064 2.657-2.656 0-1.604-1.06-2.654-2.657-2.654-1.59 0-3.186 1.05-3.186 2.654 0 1.592 1.596 2.656 3.186 2.656"/>
    </g>
</svg>
