<?xml version="1.0" encoding="UTF-8"?>
<svg xmlns:xlink="http://www.w3.org/1999/xlink" width="72px" height="73px" viewBox="0 0 72 73" version="1.1"
     xmlns="http://www.w3.org/2000/svg">
    <!-- Generator: sketchtool 45.1 (43504) - http://www.bohemiancoding.com/sketch -->
    <title>EF7B542A-9CE5-46F2-AA79-20F12578FCC9</title>
    <desc>Created with sketchtool.</desc>
    <defs>
        <polygon id="path-1" points="0 71.6747306 0 0.366438893 71.5252881 0.366438893 71.5252881 71.6747306"></polygon>
        <polygon id="path-3"
                 points="71.5254673 36.0206296 71.5254673 0.366438893 0 0.366438893 0 36.0206296 0 71.6748202 71.5254673 71.6748202"></polygon>
    </defs>
    <g id="最新页面" stroke="none" stroke-width="1" fill="none" fill-rule="evenodd">
        <g id="支付页面-最新" transform="translate(-40.000000, -687.000000)">
            <g id="Group-11" transform="translate(40.000000, 687.000000)">
                <g id="Page-1">
                    <g id="Group-3" transform="translate(0.000000, 0.529858)">
                        <mask id="mask-2" fill="white">
                            <use xlink:href="#path-1"></use>
                        </mask>
                        <g id="Clip-2"></g>
                        <path d="M58.8773227,45.107463 C69.1877842,48.5541388 71.5234962,48.7342225 71.5234962,48.7342225 L71.5252881,11.7857141 C71.5252881,5.47920218 66.3951436,0.366080517 60.0716089,0.366080517 L11.4615635,0.366080517 C5.13086125,0.366080517 -0.000179187723,5.47920218 -0.000179187723,11.7857141 L-0.000179187723,60.2470336 C-0.000179187723,66.5562334 5.12996531,71.6747306 11.4615635,71.6747306 L60.0716089,71.6747306 C66.3969355,71.6747306 71.5234962,66.5562334 71.5234962,60.2479296 L71.5252881,59.7587471 C71.5252881,59.7587471 52.9130593,52.0259009 43.5128714,47.5139541 C37.2072555,55.2557596 29.0766126,59.9468942 20.6297033,59.9468942 C12.2705961,59.9459983 6.29737332,55.0577572 5.61825185,49.9285086 C5.62004373,49.9365721 5.61825185,49.9544909 5.61825185,49.9544909 C5.62004373,49.9544909 3.77978582,44.6442627 8.26575045,39.2919254 C9.75300855,37.5134873 12.2526773,35.7932851 16.1446346,34.8310471 C22.2289537,33.343789 31.9212176,35.7673029 40.994388,38.7498826 C42.6276841,35.7493842 44.0029498,32.4496422 45.0252158,28.9277076 L17.0477407,28.9277076 L17.0477407,26.1010212 L31.4741443,26.1010212 L31.4741443,21.0380721 L13.9979657,21.0380721 L13.9979657,18.2122817 L31.4741443,18.2122817 L31.4741443,10.9856409 C31.4741443,10.9856409 31.4741443,9.76626844 32.7114355,9.76626844 L39.7669521,9.7653725 L39.7669521,18.2122817 L57.0388567,18.2122817 L57.0388567,21.0380721 L39.7669521,21.0380721 L39.7669521,26.1010212 L53.8681299,26.1010212 C52.5188464,31.6173153 50.4644591,36.6874319 47.8949072,41.1474143 C52.17391,42.6938043 56.0156948,44.1550802 58.8773227,45.107463"
                              id="Fill-1" fill="#2F9FBE" mask="url(#mask-2)"></path>
                    </g>
                    <g id="Group-6" transform="translate(0.000000, 0.529858)">
                        <mask id="mask-4" fill="white">
                            <use xlink:href="#path-3"></use>
                        </mask>
                        <g id="Clip-5"></g>
                        <path d="M71.5254673,59.7588367 L71.5254673,60.2471232 C71.5254673,66.5563229 66.3953228,71.6748202 60.0717881,71.6748202 L11.4617427,71.6748202 C5.13104044,71.6748202 0,66.5563229 0,60.2480192 L0,11.7858037 C0,5.47839584 5.1301445,0.366170111 11.4617427,0.366170111 L60.0717881,0.366170111 C66.3962187,0.366170111 71.5236754,5.47839584 71.5236754,11.7858037 L71.5254673,48.7343121 L71.5254673,59.7588367 Z"
                              id="Fill-4" fill="#00ADEE" mask="url(#mask-4)"></path>
                    </g>
                    <path d="M19.3252167,55.7332949 C8.20572257,55.7332949 4.9140441,46.9952056 10.4151072,42.2082056 C12.2455098,40.5928283 15.6043836,39.8044023 17.3908852,39.6305902 C23.9993284,38.977451 30.1176932,41.4959344 37.3344787,45.0107016 C32.2580906,51.6101854 25.7956854,55.7332949 19.3252167,55.7332949 M58.8853861,45.6719043 C56.0237582,44.7186256 52.1828694,43.2492863 47.9038666,41.7109597 C50.4734185,37.2581448 52.5260139,32.1817566 53.8752974,26.6753179 L39.7839749,26.6753179 L39.7839749,21.6123688 L57.0469201,21.6123688 L57.0469201,18.7847865 L39.7839749,18.7847865 L39.7839749,10.3486285 L32.7293543,10.3486285 C31.4911671,10.3486285 31.4911671,11.5590416 31.4911671,11.5590416 L31.4911671,18.7847865 L14.0311154,18.7847865 L14.0311154,21.6123688 L31.4911671,21.6123688 L31.4911671,26.6753179 L17.073723,26.6753179 L17.073723,29.5002123 L45.0431346,29.5002123 C44.0199727,33.0149795 42.6447069,36.3138255 41.0114108,39.313428 C31.9382405,36.3326402 22.25404,33.9091262 16.1715128,35.4044478 C12.2786595,36.3577265 9.77809483,38.0671773 8.30069206,39.8456155 C1.54621086,48.0425579 6.39234281,60.4943127 20.6646449,60.4943127 C29.0936354,60.4934168 37.2224864,55.8040741 43.5209349,48.0774995 C52.9229147,52.5804869 71.5234962,60.314229 71.5234962,60.314229 L71.5252881,49.2888085 C71.5252881,49.2888085 69.1868883,49.1096207 58.8853861,45.6719043"
                          id="Fill-7" fill="#FEFEFE"></path>
                </g>
            </g>
        </g>
    </g>
</svg>