<svg xmlns="http://www.w3.org/2000/svg" width="35" height="35" viewBox="0 0 35 35">
    <path fill="#FD4915" fill-rule="evenodd" d="M17.5 20.266c-3.358 0-6.084-2.765-6.084-6.169 0-3.403 2.726-6.168 6.084-6.168 3.358 0 6.084 2.765 6.084 6.168 0 3.404-2.726 6.169-6.084 6.169M17.506 1C10.046 1 4 7.136 4 14.697c0 3.48 1.289 6.64 3.39 9.056.057.11.132.219.22.316l8.773 9.32c.044.058.088.122.139.174.132.136.283.232.448.303a1.33 1.33 0 0 0 1.527-.257c.114-.117.202-.252.265-.394l8.608-9.146a1.18 1.18 0 0 0 .202-.27A13.73 13.73 0 0 0 31 14.704C31.012 7.136 24.966 1 17.506 1"/>
</svg>
