<svg xmlns="http://www.w3.org/2000/svg" width="67" height="67" viewBox="0 0 67 67">
    <g fill="none" fill-rule="evenodd">
        <path stroke="#464646" stroke-width="1.5" d="M40.444 66.121H27.287c-14.122 0-25.675-11.555-25.675-25.677V27.289c0-14.123 11.553-25.678 25.675-25.678h13.157c14.123 0 25.677 11.555 25.677 25.678v13.155c0 14.122-11.554 25.677-25.677 25.677z"/>
        <path fill="#E84B21" d="M35.09 55.263c-2.047 0-3.713-1.798-3.713-4.032 0-2.21 1.666-4.025 3.712-4.025 2.053 0 3.71 1.807 3.71 4.025-.007 2.226-1.664 4.032-3.71 4.032m0-12.493c-1.722 0-3.125-1.516-3.125-3.39V20.743c0-1.868 1.396-3.383 3.125-3.383 1.728 0 3.133 1.515 3.133 3.383V39.38c-.008 1.874-1.412 3.39-3.133 3.39"/>
        <path stroke="#464646" stroke-width="1.5" d="M33.866 52.818c-2.046 0-3.71-1.8-3.71-4.033 0-2.21 1.664-4.024 3.71-4.024 2.053 0 3.71 1.806 3.71 4.024-.006 2.226-1.664 4.033-3.71 4.033zm0-12.495c-1.721 0-3.125-1.515-3.125-3.388v-18.64c0-1.865 1.397-3.381 3.125-3.381s3.132 1.516 3.132 3.382v18.639c-.007 1.873-1.41 3.388-3.132 3.388z"/>
    </g>
</svg>
