<svg xmlns="http://www.w3.org/2000/svg" width="67" height="67" viewBox="0 0 67 67">
    <g fill="none" fill-rule="evenodd">
        <path stroke="#464646" stroke-width="1.5" d="M40.444 66.12H27.287c-14.121 0-25.675-11.553-25.675-25.676V27.288c0-14.123 11.554-25.676 25.675-25.676h13.157c14.123 0 25.677 11.553 25.677 25.676v13.156c0 14.123-11.554 25.676-25.677 25.676z"/>
        <path fill="#E84B21" d="M50.084 44.317l-4.61-4.609a12.624 12.624 0 0 0-3.397-13.504 12.626 12.626 0 0 0-13.755-2.169 1.252 1.252 0 0 0-.3 2.014l5.99 6.056-3.893 3.892-6.056-5.989a1.247 1.247 0 0 0-2.013.367 12.626 12.626 0 0 0 2.169 13.766 12.625 12.625 0 0 0 13.519 3.387l4.609 4.608a5.5 5.5 0 1 0 7.737-7.819"/>
        <path stroke="#464646" stroke-width="1.5" d="M47.637 39.87l-4.61-4.609A12.628 12.628 0 0 0 25.875 19.59a1.25 1.25 0 0 0-.298 2.013l5.99 6.056-3.893 3.893-6.056-5.99c-.29-.286-.7-.415-1.101-.341a1.253 1.253 0 0 0-.913.707 12.628 12.628 0 0 0 15.69 17.153l4.608 4.608a5.497 5.497 0 0 0 7.777-.04 5.499 5.499 0 0 0-.041-7.779z"/>
    </g>
</svg>
