<svg xmlns="http://www.w3.org/2000/svg" width="48" height="48" viewBox="0 0 48 48">
    <g fill="none" fill-rule="evenodd" stroke="#464646" stroke-width="2">
        <path d="M33.581 5.67c-3.652 0-7.059 1.621-9.394 4.32a.414.414 0 0 1-.632 0c-2.335-2.7-5.74-4.32-9.394-4.32-6.888 0-12.49 5.67-12.49 12.64 0 4.16 2.006 7.074 3.62 9.419 4.688 6.808 16.475 15.28 16.974 15.636a2.75 2.75 0 0 0 3.21 0c.5-.357 12.288-8.828 16.974-15.636 1.615-2.345 3.622-5.26 3.622-9.419 0-6.97-5.604-12.64-12.49-12.64z"/>
        <path stroke-linecap="round" d="M16.577 16.964l7.494-6.905M38.155 14.24s3.658 2.71 1.198 7.815"/>
    </g>
</svg>
