<svg xmlns="http://www.w3.org/2000/svg" width="48" height="48" viewBox="0 0 48 48">
    <g fill="none" fill-rule="evenodd">
        <path fill="#FD4915" d="M33.91 5c-3.652 0-7.059 1.621-9.394 4.32a.414.414 0 0 1-.633 0C21.55 6.62 18.143 5 14.49 5 7.602 5 2 10.67 2 17.64c0 4.16 2.006 7.074 3.62 9.419 4.688 6.808 16.475 15.28 16.974 15.636a2.75 2.75 0 0 0 3.209 0c.5-.357 12.289-8.828 16.975-15.636 1.614-2.345 3.622-5.26 3.622-9.419C46.4 10.67 40.796 5 33.91 5z"/>
        <path stroke="#464646" stroke-linecap="round" stroke-width="2" d="M16.577 15.964l7.494-6.905M38.155 13.24s3.658 2.71 1.198 7.815"/>
        <path stroke="#464646" stroke-width="2" d="M33.91 5c-3.652 0-7.059 1.621-9.394 4.32a.414.414 0 0 1-.633 0C21.55 6.62 18.143 5 14.49 5 7.602 5 2 10.67 2 17.64c0 4.16 2.006 7.075 3.62 9.419 4.688 6.808 16.475 15.28 16.974 15.636a2.75 2.75 0 0 0 3.209 0c.5-.357 12.289-8.828 16.975-15.636 1.614-2.345 3.622-5.26 3.622-9.419C46.4 10.67 40.796 5 33.91 5z"/>
    </g>
</svg>
