<svg xmlns="http://www.w3.org/2000/svg" width="48" height="48" viewBox="0 0 48 48">
    <g fill="none" fill-rule="evenodd">
        <path fill="#E84B21" d="M42.975 19.236v20.19c0 1.74-1.398 3.149-3.123 3.149H28.085v-9.29c0-1.74-1.397-3.15-3.121-3.15h-.201c-1.724 0-3.122 1.41-3.122 3.15v9.29H8.827c-1.724 0-3.122-1.408-3.122-3.149v-20.19L23.23 6.042a2.496 2.496 0 0 1 3.048.035l16.698 13.16z"/>
        <path stroke="#464646" stroke-linecap="round" stroke-width="2" d="M3.085 21.283L23.208 5.566a2.455 2.455 0 0 1 3.064.032l19.257 15.685"/>
        <path stroke="#464646" stroke-linecap="round" stroke-width="2" d="M5.705 19.236v20.19c0 1.74 1.397 3.149 3.121 3.149h12.815v-9.29c0-1.74 1.397-3.15 3.121-3.15h.202c1.724 0 3.121 1.41 3.121 3.15v9.29h11.767c1.725 0 3.122-1.408 3.122-3.149v-20.19M37.975 27.894v9.19"/>
    </g>
</svg>
