<svg xmlns="http://www.w3.org/2000/svg" width="44" height="39" viewBox="0 0 44 39">
    <g fill="none" fill-rule="evenodd">
        <path stroke="#F3DE06" stroke-linecap="round" stroke-width="2" d="M1.058 23.4h41.739V1.046H1.057z"/>
        <path stroke="#F3DE06" stroke-linecap="round" stroke-width="2" d="M1.057 14.854V23.4h8.546a8.546 8.546 0 0 0-8.546-8.546zM42.797 14.854V23.4H34.25a8.546 8.546 0 0 1 8.546-8.546zM1.057 9.592V1.047h8.546a8.546 8.546 0 0 1-8.546 8.545zM42.797 9.592V1.047H34.25a8.546 8.546 0 0 0 8.546 8.545zM27.194 12.223c0 4.118-2.358 7.456-5.267 7.456-2.909 0-5.267-3.338-5.267-7.456 0-4.117 2.358-7.455 5.267-7.455 2.91 0 5.267 3.338 5.267 7.455z"/>
        <path fill="#F3DE06" d="M13.278 12.223a1.704 1.704 0 1 1-3.408 0 1.704 1.704 0 0 1 3.408 0M30.576 12.223a1.704 1.704 0 1 0 3.408 0 1.704 1.704 0 0 0-3.408 0"/>
        <path stroke="#F3DE06" stroke-linecap="round" stroke-width="2" d="M42.797 28H1.057M42.797 33H1.057M42.797 38H1.057"/>
    </g>
</svg>
