<svg xmlns="http://www.w3.org/2000/svg" width="60" height="39" viewBox="0 0 60 39">
    <g fill="none" fill-rule="evenodd" stroke="#507AC1" stroke-width="2.053">
        <path d="M10.797 9.285l4.39-6.757a1.813 1.813 0 0 1 1.52-.828h26.769c.641 0 1.236.342 1.563.899l3.926 6.686"/>
        <path d="M7.26 8.452H2.144c-.614 0-1.111.5-1.111 1.12v3.293c0 .507.338.95.824 1.081l3.879 1.042a1.097 1.097 0 0 1 .614 1.682l-1.035 1.506a3.21 3.21 0 0 0-.563 1.818v9.8a1.82 1.82 0 0 0 1.812 1.828h46.372a1.82 1.82 0 0 0 1.814-1.827V19.56c0-.638-.19-1.263-.546-1.791l-.765-1.138a1.099 1.099 0 0 1 .61-1.67l3.606-1.01c.481-.134.814-.575.814-1.077V9.57c0-.618-.498-1.119-1.111-1.119h-4.699c-.876 0-1.727.298-2.416.843l-2.533 2.009a10.524 10.524 0 0 1-6.54 2.282H19.054c-2.048 0-4.05-.625-5.74-1.791L9.469 9.14a3.888 3.888 0 0 0-2.21-.689z"/>
        <path stroke-linecap="round" d="M9.694 19.611l1.28 1.172c.456.419 1.052.65 1.67.65h4.572M50.196 19.611l-1.28 1.172a2.469 2.469 0 0 1-1.669.65h-4.573M18.732 26.21H41.94M53.893 32.477v3.653c0 .945-.76 1.711-1.699 1.711h-9.801a1.705 1.705 0 0 1-1.7-1.711v-3.653M19.237 32.477v3.653c0 .945-.761 1.711-1.699 1.711H7.736a1.705 1.705 0 0 1-1.699-1.711v-3.653M43.311 31.242h9.8"/>
    </g>
</svg>
