<svg xmlns="http://www.w3.org/2000/svg" width="68" height="68" viewBox="0 0 68 68">
    <g fill="none" fill-rule="evenodd">
        <path stroke="#464646" stroke-width="1.5" d="M40.73 67H27.27C12.82 67 1 55.178 1 40.73V27.27C1 12.82 12.82 1 27.27 1h13.46C55.18 1 67 12.82 67 27.27v13.46C67 55.178 55.18 67 40.73 67z"/>
        <path stroke="#464646" stroke-width="1.5" d="M34 54.68a20.586 20.586 0 0 1-13.035-4.632l-1.913 1.776-.978-7.625 7.137 2.1-1.973 1.573c2.976 2.313 6.7 3.706 10.762 3.706 9.709 0 17.578-7.872 17.578-17.578 0-9.709-7.87-17.578-17.578-17.578-9.707 0-17.576 7.87-17.576 17.578H13.32c0-11.42 9.26-20.68 20.68-20.68S54.68 22.58 54.68 34 45.42 54.68 34 54.68"/>
        <path fill="#E84B21" d="M42.934 31.894c.655 0 1.186.527 1.186 1.18 0 .65-.53 1.18-1.186 1.18h-5.987v3.997h5.987c.655 0 1.186.53 1.186 1.18a1.18 1.18 0 0 1-1.186 1.18h-5.987v6.73c0 .652-.53 1.179-1.187 1.179a1.182 1.182 0 0 1-1.185-1.179v-6.73h-5.988a1.18 1.18 0 0 1-1.186-1.18c0-.65.53-1.18 1.186-1.18h5.988v-3.997h-5.988c-.655 0-1.186-.53-1.186-1.18 0-.653.53-1.18 1.186-1.18h4.31l-5.15-5.121a1.176 1.176 0 0 1 0-1.669 1.195 1.195 0 0 1 1.679 0l6.334 6.3 6.336-6.3a1.194 1.194 0 0 1 1.678 0c.461.46.461 1.207 0 1.669l-5.15 5.12h4.31z"/>
        <path stroke="#464646" stroke-width="1.5" d="M41.174 31.014c.654 0 1.185.528 1.185 1.179 0 .65-.53 1.18-1.185 1.18h-5.988v3.998h5.988c.654 0 1.185.528 1.185 1.18a1.18 1.18 0 0 1-1.185 1.178h-5.988v6.732c0 .65-.53 1.179-1.185 1.179a1.183 1.183 0 0 1-1.186-1.179V39.73h-5.989a1.18 1.18 0 0 1-1.185-1.178c0-.652.53-1.18 1.185-1.18h5.989v-3.998h-5.989c-.654 0-1.185-.53-1.185-1.18 0-.651.53-1.179 1.185-1.179h4.31l-5.149-5.122a1.174 1.174 0 0 1 0-1.667 1.193 1.193 0 0 1 1.679 0l6.335 6.3 6.334-6.3a1.191 1.191 0 0 1 1.678 0c.463.46.463 1.207 0 1.667l-5.15 5.122h4.31z"/>
    </g>
</svg>
