<svg xmlns="http://www.w3.org/2000/svg" width="67" height="67" viewBox="0 0 67 67">
    <g fill="none" fill-rule="evenodd">
        <path stroke="#464646" stroke-width="1.5" d="M40.128 66H26.871C12.643 66 1 54.358 1 40.128V26.872C1 12.642 12.643 1 26.87 1h13.258C54.358 1 66 12.642 66 26.872v13.256C66 54.358 54.358 66 40.128 66z"/>
        <path fill="#E84B21" d="M28.546 18.627h-4.409a5.516 5.516 0 0 0-5.51 5.505v4.409a5.517 5.517 0 0 0 5.51 5.51h9.914v-9.914a5.516 5.516 0 0 0-5.505-5.51M18.627 41.76v4.408a5.517 5.517 0 0 0 5.51 5.51h4.404a5.517 5.517 0 0 0 5.51-5.51v-9.914h-9.914a5.516 5.516 0 0 0-5.51 5.506M46.171 18.627h-4.41a5.513 5.513 0 0 0-5.507 5.507v9.917h9.917a5.514 5.514 0 0 0 5.507-5.513V24.13c.005-3.03-2.468-5.503-5.507-5.503M46.171 36.254h-9.917v9.914a5.517 5.517 0 0 0 5.507 5.51h4.41a5.513 5.513 0 0 0 5.507-5.51V41.76c.005-3.034-2.468-5.506-5.507-5.506"/>
        <path stroke="#464646" stroke-width="1.5" d="M25.95 15.322h-4.724c-3.255 0-5.904 2.648-5.904 5.9v4.722a5.91 5.91 0 0 0 5.904 5.903h10.621v-10.62c0-3.257-2.647-5.905-5.898-5.905zM15.322 39.95v4.722a5.91 5.91 0 0 0 5.904 5.904h4.718a5.91 5.91 0 0 0 5.903-5.904V34.051h-10.62c-3.256 0-5.905 2.647-5.905 5.9zM44.676 15.322h-4.724a5.907 5.907 0 0 0-5.901 5.901v10.624h10.625c3.257 0 5.9-2.648 5.9-5.904v-4.725c.005-3.248-2.643-5.896-5.9-5.896zM44.676 34.05H34.051v10.622a5.91 5.91 0 0 0 5.901 5.904h4.724c3.257 0 5.9-2.647 5.9-5.904V39.95c.005-3.252-2.643-5.9-5.9-5.9z"/>
    </g>
</svg>
