<svg xmlns="http://www.w3.org/2000/svg" width="67" height="67" viewBox="0 0 67 67">
    <g fill="none" fill-rule="evenodd">
        <path stroke="#464646" stroke-width="1.5" d="M40.444 66.12H27.287c-14.121 0-25.675-11.553-25.675-25.676V27.288c0-14.123 11.554-25.676 25.675-25.676h13.157c14.122 0 25.677 11.553 25.677 25.676v13.156c0 14.123-11.555 25.676-25.677 25.676z"/>
        <path stroke="#464646" stroke-width="1.5" d="M51.212 36.434c0 10.244-6.93 18.205-17.175 18.205-10.242 0-17.517-8.305-17.517-18.549 0-10.243 17.517-24.046 17.517-24.046s17.175 14.145 17.175 24.39zM44.93 42.99a7.409 7.409 0 0 1-6.84 7.386"/>
        <path fill="#E84B21" d="M28.57 39.548l8.009-9.365c.226-.265.658-.08.623.268l-.573 5.445a.355.355 0 0 0 .342.391l4.36.14c.3.01.453.366.254.59l-8.773 9.9c-.241.272-.686.05-.614-.306l1.202-5.908a.354.354 0 0 0-.336-.424l-4.237-.146a.355.355 0 0 1-.256-.585"/>
        <path stroke="#464646" stroke-width="1.5" d="M27.347 38.326l8.01-9.366a.355.355 0 0 1 .622.269l-.574 5.445a.356.356 0 0 0 .343.39l4.36.14c.301.01.454.366.253.59l-8.773 9.9c-.24.272-.684.05-.612-.306l1.2-5.909a.354.354 0 0 0-.335-.424l-4.236-.144a.355.355 0 0 1-.258-.585z"/>
    </g>
</svg>
