<svg xmlns="http://www.w3.org/2000/svg" width="36" height="36" viewBox="0 0 36 36">
    <path fill="none" fill-rule="evenodd" stroke="#464646" stroke-linecap="round" stroke-width="2" d="M32.849 29.024c.408-1.276-.107-1.852-.403-2.047-2.044-1.711-5.645-4.016-7.053-4.31l-.099-.022-.101.014c-.8.116-1.283.643-1.709 1.108-.56.61-.927.95-1.706.841-.238-.034-1.254-.441-4.484-4.228l-1.378-1.651c-3.222-3.944-3.426-5.014-3.411-5.248.05-.775.466-1.045 1.196-1.455.554-.311 1.183-.664 1.464-1.4l.035-.094v-.1c-.008-1.401-1.583-5.31-2.856-7.557-.14-.328-.541-.875-1.65-.875-2.249 0-6.186 2.22-6.608 4.849-.598 3.727 1.96 9.45 6.844 15.312l1.803 2.163c4.884 5.86 10.108 9.477 13.975 9.673l.168.003c2.543 0 5.333-2.972 5.973-4.976z"/>
</svg>
