<?xml version="1.0" encoding="UTF-8"?>
<svg width="14px" height="21px" viewBox="0 0 14 21" version="1.1" xmlns="http://www.w3.org/2000/svg" xmlns:xlink="http://www.w3.org/1999/xlink">
    <!-- Generator: sketchtool 45.1 (43504) - http://www.bohemiancoding.com/sketch -->
    <title>7A2AFAB3-3C80-4E83-985B-C8F42FCE9C84</title>
    <desc>Created with sketchtool.</desc>
    <defs></defs>
    <g id="房计划超市" stroke="none" stroke-width="1" fill="none" fill-rule="evenodd">
        <g id="房计划超市-商品列表页" transform="translate(-758.000000, -161.000000)" fill="#9F9F9F">
            <g id="Group-8-Copy" transform="translate(758.000000, 161.000000)">
                <g id="Group-7">
                    <path d="M13.78301,14.2406197 L7.50954024,20.4358992 C7.22675192,20.714778 6.77324808,20.714778 6.49045976,20.4358992 L0.216989962,14.2406197 C-0.244332911,13.7858127 0.0788537342,13 0.726530197,13 L13.2734698,13 C13.9211463,13 14.2443329,13.7858127 13.78301,14.2406197" id="Fill-1-Copy"></path>
                    <path d="M13.78301,1.2406197 L7.50954024,7.43589919 C7.22675192,7.71477799 6.77324808,7.71477799 6.49045976,7.43589919 L0.216989962,1.2406197 C-0.244332911,0.78581269 0.0788537342,0 0.726530197,0 L13.2734698,0 C13.9211463,0 14.2443329,0.78581269 13.78301,1.2406197" id="Fill-1-Copy-2" transform="translate(7.000000, 3.822529) scale(1, -1) translate(-7.000000, -3.822529) "></path>
                </g>
            </g>
        </g>
    </g>
</svg>