<svg xmlns="http://www.w3.org/2000/svg" width="48" height="48" viewBox="0 0 48 48">
    <g fill="none" fill-rule="evenodd" stroke="#464646" stroke-width="2">
        <path d="M16.943 29.701a17.644 17.644 0 0 0-9.93 12.114c-.228.989.539 1.933 1.546 1.933h30.98c1.008 0 1.776-.944 1.548-1.931-1.252-5.43-4.982-9.902-9.931-12.121-.707-.316-.833-1.275-.201-1.724a12.093 12.093 0 0 0 5.098-9.787c.054-6.478-5.21-12.004-11.63-12.199-6.795-.205-12.368 5.29-12.368 12.098 0 4.093 2.018 7.702 5.102 9.89.63.447.488 1.411-.214 1.727z"/>
        <path stroke-linecap="round" d="M25.849 11.92s5.11 1.458 5 7.06"/>
    </g>
</svg>
